# MagicaVoxel @ Ephtracy

# material
mtllib openroom1.mtl
usemtl palette

# normals
vn -1 0 0
vn 1 0 0
vn 0 0 1
vn 0 0 -1
vn 0 -1 0
vn 0 1 0

# texcoords
vt 0.568359 0.5
vt 0.705078 0.5
vt 0.896484 0.5

# verts
v -2.5 0 2.5
v -2.5 0 1.5
v -2.5 0 -2.5
v -2.5 1 2.5
v -2.5 1 1.5
v -2.5 1 -1.5
v -2.5 4 -1.5
v -2.5 4 -2.5
v -2.5 5 2.5
v -2.5 5 -2.5
v 1.5 1 2.5
v 1.5 1 1.5
v 1.5 1 -1.5
v 1.5 4 1.5
v 1.5 4 -1.5
v 1.5 5 2.5
v 1.5 5 -1.5
v -1.5 1 2.5
v -1.5 1 -1.5
v -1.5 5 2.5
v -1.5 5 -1.5
v 2.5 0 2.5
v 2.5 0 1.5
v 2.5 0 -2.5
v 2.5 4 1.5
v 2.5 4 -2.5
v 2.5 5 2.5
v 2.5 5 -2.5
v -2.5 0 2.5
v -2.5 1 2.5
v -2.5 5 2.5
v -1.5 1 2.5
v -1.5 5 2.5
v 1.5 1 2.5
v 1.5 5 2.5
v 2.5 0 2.5
v 2.5 5 2.5
v -1.5 1 -1.5
v -1.5 5 -1.5
v 1.5 1 -1.5
v 1.5 4 -1.5
v 1.5 5 -1.5
v -2.5 0 -2.5
v -2.5 4 -2.5
v -2.5 5 -2.5
v -1.5 1 -2.5
v -1.5 4 -2.5
v 1.5 1 -2.5
v 1.5 4 -2.5
v 1.5 5 -2.5
v 2.5 0 -2.5
v 2.5 4 -2.5
v 2.5 5 -2.5
v -2.5 0 2.5
v 2.5 0 2.5
v -2.5 0 1.5
v -1.5 0 1.5
v 1.5 0 1.5
v 2.5 0 1.5
v -1.5 0 -1.5
v 1.5 0 -1.5
v -2.5 0 -2.5
v 2.5 0 -2.5
v -1.5 1 2.5
v 1.5 1 2.5
v 1.5 1 1.5
v -1.5 1 -1.5
v 1.5 1 -1.5
v -2.5 5 2.5
v -1.5 5 2.5
v 1.5 5 2.5
v 2.5 5 2.5
v -1.5 5 -1.5
v 1.5 5 -1.5
v -2.5 5 -2.5
v 1.5 5 -2.5
v 2.5 5 -2.5

# faces
f 4/2/1 2/2/1 1/2/1
f 5/1/1 3/1/1 2/1/1
f 5/2/1 2/2/1 4/2/1
f 6/1/1 3/1/1 5/1/1
f 7/3/1 5/3/1 4/3/1
f 7/1/1 3/1/1 6/1/1
f 7/3/1 6/3/1 5/3/1
f 8/1/1 3/1/1 7/1/1
f 9/3/1 7/3/1 4/3/1
f 9/3/1 8/3/1 7/3/1
f 10/3/1 8/3/1 9/3/1
f 14/2/1 12/2/1 11/2/1
f 14/1/1 13/1/1 12/1/1
f 15/1/1 13/1/1 14/1/1
f 16/2/1 14/2/1 11/2/1
f 16/2/1 15/2/1 14/2/1
f 17/2/1 15/2/1 16/2/1
f 18/3/2 19/3/2 20/3/2
f 20/3/2 19/3/2 21/3/2
f 22/2/2 23/2/2 25/2/2
f 23/1/2 24/1/2 25/1/2
f 25/1/2 24/1/2 26/1/2
f 22/2/2 25/2/2 27/2/2
f 25/2/2 26/2/2 27/2/2
f 27/2/2 26/2/2 28/2/2
f 32/2/3 30/2/3 29/2/3
f 32/3/3 31/3/3 30/3/3
f 33/3/3 31/3/3 32/3/3
f 34/2/3 32/2/3 29/2/3
f 36/2/3 34/2/3 29/2/3
f 36/2/3 35/2/3 34/2/3
f 37/2/3 35/2/3 36/2/3
f 40/3/3 39/3/3 38/3/3
f 41/3/3 39/3/3 40/3/3
f 42/3/3 39/3/3 41/3/3
f 43/1/4 44/1/4 46/1/4
f 44/3/4 45/3/4 47/3/4
f 46/1/4 44/1/4 47/1/4
f 43/1/4 46/1/4 48/1/4
f 46/3/4 47/3/4 48/3/4
f 47/3/4 45/3/4 49/3/4
f 48/3/4 47/3/4 49/3/4
f 49/3/4 45/3/4 50/3/4
f 43/1/4 48/1/4 51/1/4
f 48/1/4 49/1/4 51/1/4
f 49/2/4 50/2/4 52/2/4
f 51/1/4 49/1/4 52/1/4
f 52/2/4 50/2/4 53/2/4
f 56/2/5 55/2/5 54/2/5
f 57/2/5 55/2/5 56/2/5
f 58/2/5 55/2/5 57/2/5
f 59/2/5 55/2/5 58/2/5
f 60/1/5 57/1/5 56/1/5
f 60/2/5 58/2/5 57/2/5
f 61/1/5 59/1/5 58/1/5
f 61/2/5 58/2/5 60/2/5
f 62/1/5 60/1/5 56/1/5
f 62/1/5 61/1/5 60/1/5
f 63/1/5 59/1/5 61/1/5
f 63/1/5 61/1/5 62/1/5
f 64/2/6 65/2/6 66/2/6
f 64/2/6 66/2/6 67/2/6
f 67/2/6 66/2/6 68/2/6
f 69/3/6 70/3/6 73/3/6
f 71/2/6 72/2/6 74/2/6
f 69/3/6 73/3/6 75/3/6
f 73/3/6 74/3/6 75/3/6
f 74/2/6 72/2/6 76/2/6
f 75/3/6 74/3/6 76/3/6
f 76/2/6 72/2/6 77/2/6
