# MagicaVoxel @ Ephtracy

# material
mtllib openroom2.mtl
usemtl palette

# normals
vn -1 0 0
vn 1 0 0
vn 0 0 1
vn 0 0 -1
vn 0 -1 0
vn 0 1 0

# texcoords
vt 0.494141 0.5
vt 0.560547 0.5
vt 0.900391 0.5
vt 0.958984 0.5
vt 0.966797 0.5
vt 0.994141 0.5

# verts
v -15 0 15
v -15 0 -15
v -15 1 14
v -15 1 -15
v -15 8 15
v -15 8 14
v -15 8 -14
v -15 8 -15
v -15 21 5
v -15 21 -4
v -15 26 5
v -15 26 -4
v -15 30 15
v -15 30 14
v -15 30 -14
v -15 30 -15
v -13 1 -7
v -13 1 -13
v -13 2 -7
v -13 5 -7
v -13 6 -7
v -13 6 -12
v -13 10 -12
v -13 10 -13
v -4 3 -7
v -4 3 -12
v -4 6 -7
v -4 6 -12
v -2 2 14
v -2 2 13
v -2 3 14
v -2 3 13
v -2 5 -13
v -2 5 -14
v -2 7 -13
v -2 7 -14
v -1 3 -13
v -1 3 -14
v -1 4 14
v -1 4 13
v -1 4 -13
v -1 4 -14
v -1 7 14
v -1 7 13
v -1 29 5
v -1 29 2
v -1 29 -0
v -1 29 -3
v -1 30 5
v -1 30 2
v -1 30 -0
v -1 30 -3
v 0 2 -13
v 0 2 -14
v 0 3 -13
v 0 3 -14
v 0 4 -13
v 0 4 -14
v 0 5 -13
v 0 5 -14
v 2 3 -13
v 2 3 -14
v 2 4 -13
v 2 4 -14
v 3 4 14
v 3 4 13
v 3 5 -13
v 3 5 -14
v 3 7 14
v 3 7 13
v 3 7 -13
v 3 7 -14
v 3 29 5
v 3 29 2
v 3 29 -0
v 3 29 -3
v 3 30 5
v 3 30 2
v 3 30 -0
v 3 30 -3
v 5 24 15
v 5 24 14
v 5 27 15
v 5 27 14
v 13 2 5
v 13 2 4
v 13 2 -3
v 13 2 -4
v 13 3 4
v 13 3 -3
v 13 4 5
v 13 4 -4
v 13 5 3
v 13 5 2
v 13 5 -1
v 13 5 -2
v 13 7 3
v 13 7 2
v 13 7 -1
v 13 7 -2
v 14 1 14
v 14 1 13
v 14 1 9
v 14 1 -14
v 14 2 5
v 14 2 4
v 14 2 -3
v 14 2 -4
v 14 3 4
v 14 3 -3
v 14 4 5
v 14 4 -4
v 14 5 3
v 14 5 2
v 14 5 -1
v 14 5 -2
v 14 7 3
v 14 7 2
v 14 7 -1
v 14 7 -2
v 14 13 13
v 14 13 9
v 14 29 14
v 14 29 -14
v -14 1 14
v -14 1 -14
v -14 2 3
v -14 2 -7
v -14 3 2
v -14 3 -6
v -14 5 3
v -14 5 2
v -14 5 -0
v -14 5 -1
v -14 5 -3
v -14 5 -4
v -14 5 -6
v -14 5 -7
v -14 7 -0
v -14 7 -1
v -14 7 -3
v -14 7 -4
v -14 21 5
v -14 21 -4
v -14 26 5
v -14 26 -4
v -14 29 14
v -14 29 -14
v -13 2 3
v -13 2 -7
v -13 3 2
v -13 3 -6
v -13 5 3
v -13 5 2
v -13 5 -0
v -13 5 -1
v -13 5 -3
v -13 5 -4
v -13 5 -6
v -13 5 -7
v -13 7 -0
v -13 7 -1
v -13 7 -3
v -13 7 -4
v -12 3 -7
v -12 3 -12
v -12 6 -7
v -12 6 -12
v -4 24 15
v -4 24 14
v -4 27 15
v -4 27 14
v -4 29 5
v -4 29 2
v -4 29 -0
v -4 29 -3
v -4 30 5
v -4 30 2
v -4 30 -0
v -4 30 -3
v -3 1 -7
v -3 1 -13
v -3 6 -7
v -3 6 -12
v -3 10 -12
v -3 10 -13
v -1 5 -13
v -1 5 -14
v -1 7 -13
v -1 7 -14
v 0 3 -13
v 0 3 -14
v 0 4 14
v 0 4 13
v 0 4 -13
v 0 4 -14
v 0 7 14
v 0 7 13
v 1 29 5
v 1 29 2
v 1 29 -0
v 1 29 -3
v 1 30 5
v 1 30 2
v 1 30 -0
v 1 30 -3
v 2 2 -13
v 2 2 -14
v 2 3 -13
v 2 3 -14
v 2 4 -13
v 2 4 -14
v 2 5 -13
v 2 5 -14
v 3 3 -13
v 3 3 -14
v 3 4 -13
v 3 4 -14
v 4 4 14
v 4 4 13
v 4 5 -13
v 4 5 -14
v 4 7 14
v 4 7 13
v 4 7 -13
v 4 7 -14
v 5 2 14
v 5 2 13
v 5 3 14
v 5 3 13
v 15 0 15
v 15 0 -15
v 15 1 14
v 15 1 13
v 15 1 9
v 15 1 -15
v 15 8 15
v 15 8 14
v 15 8 -14
v 15 8 -15
v 15 13 13
v 15 13 9
v 15 30 15
v 15 30 14
v 15 30 -14
v 15 30 -15
v -15 0 15
v -15 8 15
v -15 30 15
v -14 1 15
v -14 8 15
v -4 24 15
v -4 27 15
v -2 2 15
v -2 3 15
v -1 4 15
v -1 7 15
v 0 4 15
v 0 7 15
v 3 4 15
v 3 7 15
v 4 4 15
v 4 7 15
v 5 2 15
v 5 3 15
v 5 24 15
v 5 27 15
v 14 1 15
v 14 8 15
v 15 0 15
v 15 8 15
v 15 30 15
v 14 1 9
v 14 13 9
v 15 1 9
v 15 13 9
v 13 2 5
v 13 4 5
v 14 2 5
v 14 4 5
v -14 2 3
v -14 5 3
v -13 2 3
v -13 5 3
v 13 5 3
v 13 7 3
v 14 5 3
v 14 7 3
v -4 29 2
v -4 30 2
v -1 29 2
v -1 30 2
v 1 29 2
v 1 30 2
v 3 29 2
v 3 30 2
v -14 5 -0
v -14 7 -0
v -13 5 -0
v -13 7 -0
v 13 5 -1
v 13 7 -1
v 14 5 -1
v 14 7 -1
v -14 5 -3
v -14 7 -3
v -13 5 -3
v -13 7 -3
v -4 29 -3
v -4 30 -3
v -1 29 -3
v -1 30 -3
v 1 29 -3
v 1 30 -3
v 3 29 -3
v 3 30 -3
v 13 2 -3
v 13 3 -3
v 14 2 -3
v 14 3 -3
v -15 21 -4
v -15 26 -4
v -14 21 -4
v -14 26 -4
v -14 3 -6
v -14 5 -6
v -13 3 -6
v -13 5 -6
v -13 1 -7
v -13 2 -7
v -13 5 -7
v -13 6 -7
v -12 3 -7
v -12 6 -7
v -4 3 -7
v -4 6 -7
v -3 1 -7
v -3 6 -7
v -13 6 -12
v -13 10 -12
v -12 3 -12
v -12 6 -12
v -4 3 -12
v -4 6 -12
v -3 6 -12
v -3 10 -12
v -2 5 -13
v -2 7 -13
v -1 3 -13
v -1 4 -13
v -1 5 -13
v -1 7 -13
v 0 2 -13
v 0 3 -13
v 0 4 -13
v 0 5 -13
v 2 2 -13
v 2 3 -13
v 2 4 -13
v 2 5 -13
v 3 3 -13
v 3 4 -13
v 3 5 -13
v 3 7 -13
v 4 5 -13
v 4 7 -13
v -14 1 -14
v -14 29 -14
v -2 5 -14
v -2 7 -14
v -1 3 -14
v -1 4 -14
v -1 5 -14
v -1 7 -14
v 0 2 -14
v 0 3 -14
v 0 4 -14
v 0 5 -14
v 2 2 -14
v 2 3 -14
v 2 4 -14
v 2 5 -14
v 3 3 -14
v 3 4 -14
v 3 5 -14
v 3 7 -14
v 4 5 -14
v 4 7 -14
v 14 1 -14
v 14 29 -14
v -14 1 14
v -14 29 14
v -4 24 14
v -4 27 14
v -2 2 14
v -2 3 14
v -1 4 14
v -1 7 14
v 0 4 14
v 0 7 14
v 3 4 14
v 3 7 14
v 4 4 14
v 4 7 14
v 5 2 14
v 5 3 14
v 5 24 14
v 5 27 14
v 14 1 14
v 14 29 14
v -2 2 13
v -2 3 13
v -1 4 13
v -1 7 13
v 0 4 13
v 0 7 13
v 3 4 13
v 3 7 13
v 4 4 13
v 4 7 13
v 5 2 13
v 5 3 13
v 14 1 13
v 14 13 13
v 15 1 13
v 15 13 13
v -15 21 5
v -15 26 5
v -14 21 5
v -14 26 5
v -4 29 5
v -4 30 5
v -1 29 5
v -1 30 5
v 1 29 5
v 1 30 5
v 3 29 5
v 3 30 5
v 13 2 4
v 13 3 4
v 14 2 4
v 14 3 4
v -14 3 2
v -14 5 2
v -13 3 2
v -13 5 2
v 13 5 2
v 13 7 2
v 14 5 2
v 14 7 2
v -4 29 -0
v -4 30 -0
v -1 29 -0
v -1 30 -0
v 1 29 -0
v 1 30 -0
v 3 29 -0
v 3 30 -0
v -14 5 -1
v -14 7 -1
v -13 5 -1
v -13 7 -1
v 13 5 -2
v 13 7 -2
v 14 5 -2
v 14 7 -2
v -14 5 -4
v -14 7 -4
v -13 5 -4
v -13 7 -4
v 13 2 -4
v 13 4 -4
v 14 2 -4
v 14 4 -4
v -14 2 -7
v -14 5 -7
v -13 2 -7
v -13 5 -7
v -13 1 -13
v -13 10 -13
v -3 1 -13
v -3 10 -13
v -15 0 -15
v -15 1 -15
v -15 8 -15
v -15 30 -15
v -14 1 -15
v -14 8 -15
v -2 5 -15
v -2 7 -15
v -1 3 -15
v -1 4 -15
v -1 5 -15
v -1 7 -15
v 0 2 -15
v 0 3 -15
v 0 4 -15
v 0 5 -15
v 2 2 -15
v 2 3 -15
v 2 4 -15
v 2 5 -15
v 3 3 -15
v 3 4 -15
v 3 5 -15
v 3 7 -15
v 4 5 -15
v 4 7 -15
v 14 1 -15
v 14 8 -15
v 15 0 -15
v 15 1 -15
v 15 8 -15
v 15 30 -15
v -15 0 15
v 15 0 15
v -15 0 -15
v 15 0 -15
v -2 2 14
v 5 2 14
v -2 2 13
v 5 2 13
v 13 2 5
v 14 2 5
v 13 2 4
v 14 2 4
v -14 2 3
v -13 2 3
v 13 2 -3
v 14 2 -3
v 13 2 -4
v 14 2 -4
v -14 2 -7
v -13 2 -7
v 0 2 -13
v 2 2 -13
v 0 2 -14
v 2 2 -14
v 13 3 4
v 14 3 4
v 13 3 -3
v 14 3 -3
v -1 3 -13
v 0 3 -13
v 2 3 -13
v 3 3 -13
v -1 3 -14
v 0 3 -14
v 2 3 -14
v 3 3 -14
v -1 4 14
v 0 4 14
v 3 4 14
v 4 4 14
v -1 4 13
v 0 4 13
v 3 4 13
v 4 4 13
v 0 4 -13
v 2 4 -13
v 0 4 -14
v 2 4 -14
v 13 5 3
v 14 5 3
v 13 5 2
v 14 5 2
v -14 5 -0
v -13 5 -0
v -14 5 -1
v -13 5 -1
v 13 5 -1
v 14 5 -1
v 13 5 -2
v 14 5 -2
v -14 5 -3
v -13 5 -3
v -14 5 -4
v -13 5 -4
v -2 5 -13
v -1 5 -13
v 3 5 -13
v 4 5 -13
v -2 5 -14
v -1 5 -14
v 3 5 -14
v 4 5 -14
v 14 13 13
v 15 13 13
v 14 13 9
v 15 13 9
v -15 26 5
v -14 26 5
v -15 26 -4
v -14 26 -4
v -4 27 15
v 5 27 15
v -4 27 14
v 5 27 14
v -14 29 14
v 14 29 14
v -4 29 5
v -1 29 5
v 1 29 5
v 3 29 5
v -4 29 2
v -1 29 2
v 1 29 2
v 3 29 2
v -4 29 -0
v -1 29 -0
v 1 29 -0
v 3 29 -0
v -4 29 -3
v -1 29 -3
v 1 29 -3
v 3 29 -3
v -14 29 -14
v 14 29 -14
v -14 1 14
v 14 1 14
v 14 1 13
v 15 1 13
v 14 1 9
v 15 1 9
v -13 1 -7
v -3 1 -7
v -13 1 -13
v -3 1 -13
v -14 1 -14
v 14 1 -14
v -2 3 14
v 5 3 14
v -2 3 13
v 5 3 13
v -14 3 2
v -13 3 2
v -14 3 -6
v -13 3 -6
v -12 3 -7
v -4 3 -7
v -12 3 -12
v -4 3 -12
v 0 3 -13
v 2 3 -13
v 0 3 -14
v 2 3 -14
v 13 4 5
v 14 4 5
v 13 4 -4
v 14 4 -4
v -1 4 -13
v 0 4 -13
v 2 4 -13
v 3 4 -13
v -1 4 -14
v 0 4 -14
v 2 4 -14
v 3 4 -14
v -14 5 3
v -13 5 3
v -14 5 2
v -13 5 2
v -14 5 -6
v -13 5 -6
v -14 5 -7
v -13 5 -7
v 0 5 -13
v 2 5 -13
v 0 5 -14
v 2 5 -14
v -13 6 -7
v -12 6 -7
v -4 6 -7
v -3 6 -7
v -13 6 -12
v -12 6 -12
v -4 6 -12
v -3 6 -12
v -1 7 14
v 0 7 14
v 3 7 14
v 4 7 14
v -1 7 13
v 0 7 13
v 3 7 13
v 4 7 13
v 13 7 3
v 14 7 3
v 13 7 2
v 14 7 2
v -14 7 -0
v -13 7 -0
v -14 7 -1
v -13 7 -1
v 13 7 -1
v 14 7 -1
v 13 7 -2
v 14 7 -2
v -14 7 -3
v -13 7 -3
v -14 7 -4
v -13 7 -4
v -2 7 -13
v -1 7 -13
v 3 7 -13
v 4 7 -13
v -2 7 -14
v -1 7 -14
v 3 7 -14
v 4 7 -14
v -13 10 -12
v -3 10 -12
v -13 10 -13
v -3 10 -13
v -15 21 5
v -14 21 5
v -15 21 -4
v -14 21 -4
v -4 24 15
v 5 24 15
v -4 24 14
v 5 24 14
v -15 30 15
v 15 30 15
v -15 30 14
v -14 30 14
v 14 30 14
v 15 30 14
v -4 30 5
v -1 30 5
v 1 30 5
v 3 30 5
v -4 30 2
v -1 30 2
v 1 30 2
v 3 30 2
v -4 30 -0
v -1 30 -0
v 1 30 -0
v 3 30 -0
v -4 30 -3
v -1 30 -3
v 1 30 -3
v 3 30 -3
v -15 30 -14
v -14 30 -14
v 14 30 -14
v 15 30 -14
v -15 30 -15
v 15 30 -15

# faces
f 3/4/1 2/4/1 1/4/1
f 4/4/1 2/4/1 3/4/1
f 5/4/1 3/4/1 1/4/1
f 6/2/1 4/2/1 3/2/1
f 6/4/1 3/4/1 5/4/1
f 7/2/1 4/2/1 6/2/1
f 8/2/1 4/2/1 7/2/1
f 9/2/1 7/2/1 6/2/1
f 10/2/1 7/2/1 9/2/1
f 11/2/1 9/2/1 6/2/1
f 12/2/1 7/2/1 10/2/1
f 13/3/1 6/3/1 5/3/1
f 14/2/1 12/2/1 11/2/1
f 14/3/1 6/3/1 13/3/1
f 14/2/1 11/2/1 6/2/1
f 15/3/1 8/3/1 7/3/1
f 15/2/1 12/2/1 14/2/1
f 15/2/1 7/2/1 12/2/1
f 16/3/1 8/3/1 15/3/1
f 19/1/1 18/1/1 17/1/1
f 20/1/1 18/1/1 19/1/1
f 21/1/1 18/1/1 20/1/1
f 22/1/1 18/1/1 21/1/1
f 23/1/1 18/1/1 22/1/1
f 24/1/1 18/1/1 23/1/1
f 27/1/1 26/1/1 25/1/1
f 28/1/1 26/1/1 27/1/1
f 31/6/1 30/6/1 29/6/1
f 32/6/1 30/6/1 31/6/1
f 35/6/1 34/6/1 33/6/1
f 36/6/1 34/6/1 35/6/1
f 41/6/1 38/6/1 37/6/1
f 42/6/1 38/6/1 41/6/1
f 43/6/1 40/6/1 39/6/1
f 44/6/1 40/6/1 43/6/1
f 49/4/1 46/4/1 45/4/1
f 50/4/1 46/4/1 49/4/1
f 51/4/1 48/4/1 47/4/1
f 52/4/1 48/4/1 51/4/1
f 55/6/1 54/6/1 53/6/1
f 56/6/1 54/6/1 55/6/1
f 59/6/1 58/6/1 57/6/1
f 60/6/1 58/6/1 59/6/1
f 63/6/1 62/6/1 61/6/1
f 64/6/1 62/6/1 63/6/1
f 69/6/1 66/6/1 65/6/1
f 70/6/1 66/6/1 69/6/1
f 71/6/1 68/6/1 67/6/1
f 72/6/1 68/6/1 71/6/1
f 77/4/1 74/4/1 73/4/1
f 78/4/1 74/4/1 77/4/1
f 79/4/1 76/4/1 75/4/1
f 80/4/1 76/4/1 79/4/1
f 83/3/1 82/3/1 81/3/1
f 84/3/1 82/3/1 83/3/1
f 89/6/1 86/6/1 85/6/1
f 90/6/1 88/6/1 87/6/1
f 91/6/1 89/6/1 85/6/1
f 91/6/1 90/6/1 89/6/1
f 92/6/1 88/6/1 90/6/1
f 92/6/1 90/6/1 91/6/1
f 97/6/1 94/6/1 93/6/1
f 98/6/1 94/6/1 97/6/1
f 99/6/1 96/6/1 95/6/1
f 100/6/1 96/6/1 99/6/1
f 105/5/1 104/5/1 103/5/1
f 106/5/1 104/5/1 105/5/1
f 107/5/1 104/5/1 106/5/1
f 108/5/1 104/5/1 107/5/1
f 109/5/1 107/5/1 106/5/1
f 110/5/1 107/5/1 109/5/1
f 111/5/1 105/5/1 103/5/1
f 112/5/1 104/5/1 108/5/1
f 113/5/1 112/5/1 111/5/1
f 114/5/1 112/5/1 113/5/1
f 115/5/1 112/5/1 114/5/1
f 116/5/1 112/5/1 115/5/1
f 117/5/1 113/5/1 111/5/1
f 118/5/1 115/5/1 114/5/1
f 119/5/1 115/5/1 118/5/1
f 120/5/1 112/5/1 116/5/1
f 121/5/1 102/5/1 101/5/1
f 122/5/1 120/5/1 119/5/1
f 122/5/1 111/5/1 103/5/1
f 122/5/1 119/5/1 118/5/1
f 122/5/1 117/5/1 111/5/1
f 122/5/1 118/5/1 117/5/1
f 123/5/1 121/5/1 101/5/1
f 123/5/1 122/5/1 121/5/1
f 124/5/1 120/5/1 122/5/1
f 124/5/1 122/5/1 123/5/1
f 124/5/1 112/5/1 120/5/1
f 124/5/1 104/5/1 112/5/1
f 125/2/2 126/2/2 127/2/2
f 127/2/2 126/2/2 128/2/2
f 125/2/2 127/2/2 131/2/2
f 129/2/2 130/2/2 132/2/2
f 132/2/2 130/2/2 133/2/2
f 133/2/2 130/2/2 134/2/2
f 134/2/2 130/2/2 135/2/2
f 135/2/2 130/2/2 136/2/2
f 136/2/2 130/2/2 137/2/2
f 128/2/2 126/2/2 138/2/2
f 131/2/2 132/2/2 139/2/2
f 132/2/2 133/2/2 139/2/2
f 134/2/2 135/2/2 140/2/2
f 140/2/2 135/2/2 141/2/2
f 136/2/2 137/2/2 142/2/2
f 137/2/2 138/2/2 142/2/2
f 125/2/2 131/2/2 143/2/2
f 141/2/2 142/2/2 143/2/2
f 140/2/2 141/2/2 143/2/2
f 139/2/2 140/2/2 143/2/2
f 131/2/2 139/2/2 143/2/2
f 142/2/2 138/2/2 144/2/2
f 143/2/2 142/2/2 144/2/2
f 125/2/2 143/2/2 145/2/2
f 144/2/2 138/2/2 146/2/2
f 125/2/2 145/2/2 147/2/2
f 145/2/2 146/2/2 147/2/2
f 146/2/2 138/2/2 148/2/2
f 147/2/2 146/2/2 148/2/2
f 138/2/2 126/2/2 148/2/2
f 149/6/2 150/6/2 151/6/2
f 151/6/2 150/6/2 152/6/2
f 149/6/2 151/6/2 153/6/2
f 153/6/2 151/6/2 154/6/2
f 152/6/2 150/6/2 159/6/2
f 159/6/2 150/6/2 160/6/2
f 155/6/2 156/6/2 161/6/2
f 161/6/2 156/6/2 162/6/2
f 157/6/2 158/6/2 163/6/2
f 163/6/2 158/6/2 164/6/2
f 165/1/2 166/1/2 167/1/2
f 167/1/2 166/1/2 168/1/2
f 169/3/2 170/3/2 171/3/2
f 171/3/2 170/3/2 172/3/2
f 173/4/2 174/4/2 177/4/2
f 177/4/2 174/4/2 178/4/2
f 175/4/2 176/4/2 179/4/2
f 179/4/2 176/4/2 180/4/2
f 181/1/2 182/1/2 183/1/2
f 183/1/2 182/1/2 184/1/2
f 184/1/2 182/1/2 185/1/2
f 185/1/2 182/1/2 186/1/2
f 187/6/2 188/6/2 189/6/2
f 189/6/2 188/6/2 190/6/2
f 191/6/2 192/6/2 195/6/2
f 195/6/2 192/6/2 196/6/2
f 193/6/2 194/6/2 197/6/2
f 197/6/2 194/6/2 198/6/2
f 199/4/2 200/4/2 203/4/2
f 203/4/2 200/4/2 204/4/2
f 201/4/2 202/4/2 205/4/2
f 205/4/2 202/4/2 206/4/2
f 207/6/2 208/6/2 209/6/2
f 209/6/2 208/6/2 210/6/2
f 211/6/2 212/6/2 213/6/2
f 213/6/2 212/6/2 214/6/2
f 215/6/2 216/6/2 217/6/2
f 217/6/2 216/6/2 218/6/2
f 219/6/2 220/6/2 223/6/2
f 223/6/2 220/6/2 224/6/2
f 221/6/2 222/6/2 225/6/2
f 225/6/2 222/6/2 226/6/2
f 227/6/2 228/6/2 229/6/2
f 229/6/2 228/6/2 230/6/2
f 231/4/2 232/4/2 233/4/2
f 233/4/2 232/4/2 234/4/2
f 234/4/2 232/4/2 235/4/2
f 235/4/2 232/4/2 236/4/2
f 231/4/2 233/4/2 237/4/2
f 233/5/2 234/5/2 238/5/2
f 237/4/2 233/4/2 238/4/2
f 235/5/2 236/5/2 239/5/2
f 239/5/2 236/5/2 240/5/2
f 238/5/2 234/5/2 241/5/2
f 235/5/2 239/5/2 242/5/2
f 237/3/2 238/3/2 243/3/2
f 241/5/2 242/5/2 244/5/2
f 243/3/2 238/3/2 244/3/2
f 238/5/2 241/5/2 244/5/2
f 242/5/2 239/5/2 245/5/2
f 244/5/2 242/5/2 245/5/2
f 239/3/2 240/3/2 245/3/2
f 245/3/2 240/3/2 246/3/2
f 250/4/3 248/4/3 247/4/3
f 251/3/3 249/3/3 248/3/3
f 251/4/3 248/4/3 250/4/3
f 252/3/3 251/3/3 250/3/3
f 252/3/3 249/3/3 251/3/3
f 253/3/3 249/3/3 252/3/3
f 254/3/3 252/3/3 250/3/3
f 255/3/3 252/3/3 254/3/3
f 256/3/3 252/3/3 255/3/3
f 257/3/3 252/3/3 256/3/3
f 258/3/3 256/3/3 255/3/3
f 258/4/3 257/4/3 256/4/3
f 259/3/3 252/3/3 257/3/3
f 259/4/3 257/4/3 258/4/3
f 260/3/3 258/3/3 255/3/3
f 260/3/3 259/3/3 258/3/3
f 261/3/3 252/3/3 259/3/3
f 261/3/3 259/3/3 260/3/3
f 262/3/3 260/3/3 255/3/3
f 262/4/3 261/4/3 260/4/3
f 263/3/3 252/3/3 261/3/3
f 263/4/3 261/4/3 262/4/3
f 264/3/3 254/3/3 250/3/3
f 264/4/3 255/4/3 254/4/3
f 265/3/3 263/3/3 262/3/3
f 265/4/3 255/4/3 264/4/3
f 265/3/3 262/3/3 255/3/3
f 266/3/3 252/3/3 263/3/3
f 266/3/3 263/3/3 265/3/3
f 267/3/3 249/3/3 253/3/3
f 268/4/3 250/4/3 247/4/3
f 268/3/3 267/3/3 266/3/3
f 268/3/3 266/3/3 265/3/3
f 268/3/3 265/3/3 264/3/3
f 268/3/3 264/3/3 250/3/3
f 269/3/3 267/3/3 268/3/3
f 270/4/3 268/4/3 247/4/3
f 270/4/3 269/4/3 268/4/3
f 271/3/3 267/3/3 269/3/3
f 271/4/3 269/4/3 270/4/3
f 272/3/3 249/3/3 267/3/3
f 272/3/3 267/3/3 271/3/3
f 275/5/3 274/5/3 273/5/3
f 276/5/3 274/5/3 275/5/3
f 279/6/3 278/6/3 277/6/3
f 280/6/3 278/6/3 279/6/3
f 283/6/3 282/6/3 281/6/3
f 284/6/3 282/6/3 283/6/3
f 287/6/3 286/6/3 285/6/3
f 288/6/3 286/6/3 287/6/3
f 291/4/3 290/4/3 289/4/3
f 292/4/3 290/4/3 291/4/3
f 295/4/3 294/4/3 293/4/3
f 296/4/3 294/4/3 295/4/3
f 299/6/3 298/6/3 297/6/3
f 300/6/3 298/6/3 299/6/3
f 303/6/3 302/6/3 301/6/3
f 304/6/3 302/6/3 303/6/3
f 307/6/3 306/6/3 305/6/3
f 308/6/3 306/6/3 307/6/3
f 311/4/3 310/4/3 309/4/3
f 312/4/3 310/4/3 311/4/3
f 315/4/3 314/4/3 313/4/3
f 316/4/3 314/4/3 315/4/3
f 319/6/3 318/6/3 317/6/3
f 320/6/3 318/6/3 319/6/3
f 323/2/3 322/2/3 321/2/3
f 324/2/3 322/2/3 323/2/3
f 327/6/3 326/6/3 325/6/3
f 328/6/3 326/6/3 327/6/3
f 333/1/3 330/1/3 329/1/3
f 333/1/3 332/1/3 331/1/3
f 333/1/3 331/1/3 330/1/3
f 334/1/3 332/1/3 333/1/3
f 335/1/3 333/1/3 329/1/3
f 337/1/3 335/1/3 329/1/3
f 337/1/3 336/1/3 335/1/3
f 338/1/3 336/1/3 337/1/3
f 342/1/3 340/1/3 339/1/3
f 343/1/3 342/1/3 341/1/3
f 344/1/3 340/1/3 342/1/3
f 344/1/3 342/1/3 343/1/3
f 345/1/3 340/1/3 344/1/3
f 346/1/3 340/1/3 345/1/3
f 351/6/3 348/6/3 347/6/3
f 352/6/3 348/6/3 351/6/3
f 354/6/3 350/6/3 349/6/3
f 355/6/3 350/6/3 354/6/3
f 357/6/3 354/6/3 353/6/3
f 358/6/3 354/6/3 357/6/3
f 359/6/3 356/6/3 355/6/3
f 360/6/3 356/6/3 359/6/3
f 361/6/3 359/6/3 358/6/3
f 362/6/3 359/6/3 361/6/3
f 365/6/3 364/6/3 363/6/3
f 366/6/3 364/6/3 365/6/3
f 369/3/3 368/3/3 367/3/3
f 370/3/3 368/3/3 369/3/3
f 371/3/3 369/3/3 367/3/3
f 372/3/3 369/3/3 371/3/3
f 373/3/3 369/3/3 372/3/3
f 374/3/3 368/3/3 370/3/3
f 375/3/3 371/3/3 367/3/3
f 376/3/3 371/3/3 375/3/3
f 377/3/3 373/3/3 372/3/3
f 377/3/3 374/3/3 373/3/3
f 378/3/3 374/3/3 377/3/3
f 379/3/3 375/3/3 367/3/3
f 380/4/3 377/4/3 376/4/3
f 381/4/3 377/4/3 380/4/3
f 382/3/3 374/3/3 378/3/3
f 383/3/3 380/3/3 379/3/3
f 384/3/3 382/3/3 381/3/3
f 385/3/3 374/3/3 382/3/3
f 385/3/3 382/3/3 384/3/3
f 386/3/3 368/3/3 374/3/3
f 386/3/3 374/3/3 385/3/3
f 387/3/3 385/3/3 384/3/3
f 387/3/3 384/3/3 383/3/3
f 388/3/3 368/3/3 386/3/3
f 389/3/3 383/3/3 379/3/3
f 389/3/3 388/3/3 387/3/3
f 389/3/3 379/3/3 367/3/3
f 389/3/3 387/3/3 383/3/3
f 390/3/3 368/3/3 388/3/3
f 390/3/3 388/3/3 389/3/3
f 391/3/4 392/3/4 393/3/4
f 393/3/4 392/3/4 394/3/4
f 391/3/4 393/3/4 395/3/4
f 395/3/4 393/3/4 396/3/4
f 396/3/4 393/3/4 397/3/4
f 397/3/4 393/3/4 398/3/4
f 396/3/4 397/3/4 399/3/4
f 398/3/4 393/3/4 400/3/4
f 396/3/4 399/3/4 401/3/4
f 399/3/4 400/3/4 401/3/4
f 400/3/4 393/3/4 402/3/4
f 401/3/4 400/3/4 402/3/4
f 396/3/4 401/3/4 403/3/4
f 402/3/4 393/3/4 404/3/4
f 391/3/4 395/3/4 405/3/4
f 403/3/4 404/3/4 406/3/4
f 396/3/4 403/3/4 406/3/4
f 404/3/4 393/3/4 407/3/4
f 406/3/4 404/3/4 407/3/4
f 394/3/4 392/3/4 408/3/4
f 406/3/4 407/3/4 409/3/4
f 407/3/4 408/3/4 409/3/4
f 391/3/4 405/3/4 409/3/4
f 405/3/4 406/3/4 409/3/4
f 408/3/4 392/3/4 410/3/4
f 409/3/4 408/3/4 410/3/4
f 413/6/4 414/6/4 415/6/4
f 415/6/4 414/6/4 416/6/4
f 417/6/4 418/6/4 419/6/4
f 419/6/4 418/6/4 420/6/4
f 411/6/4 412/6/4 421/6/4
f 421/6/4 412/6/4 422/6/4
f 423/5/4 424/5/4 425/5/4
f 425/5/4 424/5/4 426/5/4
f 427/2/4 428/2/4 429/2/4
f 429/2/4 428/2/4 430/2/4
f 431/4/4 432/4/4 433/4/4
f 433/4/4 432/4/4 434/4/4
f 435/4/4 436/4/4 437/4/4
f 437/4/4 436/4/4 438/4/4
f 439/6/4 440/6/4 441/6/4
f 441/6/4 440/6/4 442/6/4
f 443/6/4 444/6/4 445/6/4
f 445/6/4 444/6/4 446/6/4
f 447/6/4 448/6/4 449/6/4
f 449/6/4 448/6/4 450/6/4
f 451/4/4 452/4/4 453/4/4
f 453/4/4 452/4/4 454/4/4
f 455/4/4 456/4/4 457/4/4
f 457/4/4 456/4/4 458/4/4
f 459/6/4 460/6/4 461/6/4
f 461/6/4 460/6/4 462/6/4
f 463/6/4 464/6/4 465/6/4
f 465/6/4 464/6/4 466/6/4
f 467/6/4 468/6/4 469/6/4
f 469/6/4 468/6/4 470/6/4
f 471/6/4 472/6/4 473/6/4
f 473/6/4 472/6/4 474/6/4
f 475/6/4 476/6/4 477/6/4
f 477/6/4 476/6/4 478/6/4
f 479/1/4 480/1/4 481/1/4
f 481/1/4 480/1/4 482/1/4
f 483/4/4 484/4/4 487/4/4
f 484/2/4 485/2/4 487/2/4
f 485/3/4 486/3/4 488/3/4
f 487/2/4 485/2/4 488/2/4
f 487/3/4 488/3/4 489/3/4
f 489/3/4 488/3/4 490/3/4
f 487/3/4 489/3/4 491/3/4
f 491/3/4 489/3/4 492/3/4
f 489/4/4 490/4/4 493/4/4
f 492/3/4 489/3/4 493/3/4
f 490/3/4 488/3/4 494/3/4
f 493/4/4 490/4/4 494/4/4
f 487/3/4 491/3/4 495/3/4
f 491/4/4 492/4/4 496/4/4
f 495/3/4 491/3/4 496/3/4
f 492/3/4 493/3/4 497/3/4
f 496/4/4 492/4/4 497/4/4
f 493/3/4 494/3/4 497/3/4
f 497/3/4 494/3/4 498/3/4
f 495/4/4 496/4/4 499/4/4
f 487/3/4 495/3/4 499/3/4
f 497/4/4 498/4/4 499/4/4
f 496/4/4 497/4/4 499/4/4
f 499/4/4 498/4/4 500/4/4
f 500/4/4 498/4/4 501/4/4
f 498/3/4 494/3/4 502/3/4
f 501/4/4 498/4/4 502/4/4
f 500/4/4 501/4/4 503/4/4
f 499/3/4 500/3/4 503/3/4
f 501/3/4 502/3/4 504/3/4
f 503/4/4 501/4/4 504/4/4
f 502/3/4 494/3/4 505/3/4
f 504/3/4 502/3/4 505/3/4
f 494/3/4 488/3/4 506/3/4
f 505/3/4 494/3/4 506/3/4
f 503/3/4 504/3/4 507/3/4
f 504/3/4 505/3/4 507/3/4
f 505/4/4 506/4/4 507/4/4
f 506/3/4 488/3/4 508/3/4
f 507/4/4 506/4/4 508/4/4
f 483/4/4 487/4/4 509/4/4
f 503/3/4 507/3/4 509/3/4
f 507/3/4 508/3/4 509/3/4
f 487/3/4 499/3/4 509/3/4
f 499/3/4 503/3/4 509/3/4
f 508/3/4 488/3/4 510/3/4
f 509/3/4 508/3/4 510/3/4
f 488/3/4 486/3/4 510/3/4
f 483/4/4 509/4/4 511/4/4
f 509/5/4 510/5/4 512/5/4
f 511/4/4 509/4/4 512/4/4
f 510/3/4 486/3/4 513/3/4
f 512/5/4 510/5/4 513/5/4
f 513/3/4 486/3/4 514/3/4
f 517/4/5 516/4/5 515/4/5
f 518/4/5 516/4/5 517/4/5
f 521/6/5 520/6/5 519/6/5
f 522/6/5 520/6/5 521/6/5
f 525/6/5 524/6/5 523/6/5
f 526/6/5 524/6/5 525/6/5
f 531/6/5 530/6/5 529/6/5
f 532/6/5 530/6/5 531/6/5
f 533/6/5 528/6/5 527/6/5
f 534/6/5 528/6/5 533/6/5
f 537/6/5 536/6/5 535/6/5
f 538/6/5 536/6/5 537/6/5
f 541/6/5 540/6/5 539/6/5
f 542/6/5 540/6/5 541/6/5
f 547/6/5 544/6/5 543/6/5
f 548/6/5 544/6/5 547/6/5
f 549/6/5 546/6/5 545/6/5
f 550/6/5 546/6/5 549/6/5
f 555/6/5 552/6/5 551/6/5
f 556/6/5 552/6/5 555/6/5
f 557/6/5 554/6/5 553/6/5
f 558/6/5 554/6/5 557/6/5
f 561/6/5 560/6/5 559/6/5
f 562/6/5 560/6/5 561/6/5
f 565/6/5 564/6/5 563/6/5
f 566/6/5 564/6/5 565/6/5
f 569/6/5 568/6/5 567/6/5
f 570/6/5 568/6/5 569/6/5
f 573/6/5 572/6/5 571/6/5
f 574/6/5 572/6/5 573/6/5
f 577/6/5 576/6/5 575/6/5
f 578/6/5 576/6/5 577/6/5
f 583/6/5 580/6/5 579/6/5
f 584/6/5 580/6/5 583/6/5
f 585/6/5 582/6/5 581/6/5
f 586/6/5 582/6/5 585/6/5
f 589/5/5 588/5/5 587/5/5
f 590/5/5 588/5/5 589/5/5
f 593/2/5 592/2/5 591/2/5
f 594/2/5 592/2/5 593/2/5
f 597/3/5 596/3/5 595/3/5
f 598/3/5 596/3/5 597/3/5
f 601/4/5 600/4/5 599/4/5
f 602/4/5 600/4/5 601/4/5
f 603/4/5 600/4/5 602/4/5
f 604/4/5 600/4/5 603/4/5
f 605/4/5 601/4/5 599/4/5
f 606/4/5 603/4/5 602/4/5
f 607/4/5 603/4/5 606/4/5
f 608/4/5 600/4/5 604/4/5
f 609/4/5 607/4/5 606/4/5
f 609/4/5 608/4/5 607/4/5
f 609/4/5 605/4/5 599/4/5
f 609/4/5 606/4/5 605/4/5
f 610/4/5 608/4/5 609/4/5
f 611/4/5 608/4/5 610/4/5
f 612/4/5 600/4/5 608/4/5
f 612/4/5 608/4/5 611/4/5
f 613/4/5 609/4/5 599/4/5
f 614/4/5 611/4/5 610/4/5
f 615/4/5 611/4/5 614/4/5
f 616/4/5 600/4/5 612/4/5
f 617/4/5 613/4/5 599/4/5
f 617/4/5 616/4/5 615/4/5
f 617/4/5 615/4/5 614/4/5
f 617/4/5 614/4/5 613/4/5
f 618/4/5 600/4/5 616/4/5
f 618/4/5 616/4/5 617/4/5
f 619/4/6 620/4/6 621/4/6
f 619/4/6 621/4/6 623/4/6
f 621/4/6 622/4/6 623/4/6
f 623/4/6 622/4/6 624/4/6
f 619/4/6 623/4/6 625/4/6
f 625/4/6 623/4/6 626/4/6
f 619/4/6 625/4/6 627/4/6
f 626/4/6 623/4/6 628/4/6
f 619/4/6 627/4/6 629/4/6
f 627/4/6 628/4/6 629/4/6
f 628/4/6 623/4/6 630/4/6
f 629/4/6 628/4/6 630/4/6
f 631/6/6 632/6/6 633/6/6
f 633/6/6 632/6/6 634/6/6
f 635/6/6 636/6/6 637/6/6
f 637/6/6 636/6/6 638/6/6
f 639/1/6 640/1/6 641/1/6
f 641/1/6 640/1/6 642/1/6
f 643/6/6 644/6/6 645/6/6
f 645/6/6 644/6/6 646/6/6
f 647/6/6 648/6/6 649/6/6
f 649/6/6 648/6/6 650/6/6
f 651/6/6 652/6/6 655/6/6
f 655/6/6 652/6/6 656/6/6
f 653/6/6 654/6/6 657/6/6
f 657/6/6 654/6/6 658/6/6
f 659/6/6 660/6/6 661/6/6
f 661/6/6 660/6/6 662/6/6
f 663/6/6 664/6/6 665/6/6
f 665/6/6 664/6/6 666/6/6
f 667/6/6 668/6/6 669/6/6
f 669/6/6 668/6/6 670/6/6
f 671/1/6 672/1/6 675/1/6
f 675/1/6 672/1/6 676/1/6
f 673/1/6 674/1/6 677/1/6
f 677/1/6 674/1/6 678/1/6
f 679/6/6 680/6/6 683/6/6
f 683/6/6 680/6/6 684/6/6
f 681/6/6 682/6/6 685/6/6
f 685/6/6 682/6/6 686/6/6
f 687/6/6 688/6/6 689/6/6
f 689/6/6 688/6/6 690/6/6
f 691/6/6 692/6/6 693/6/6
f 693/6/6 692/6/6 694/6/6
f 695/6/6 696/6/6 697/6/6
f 697/6/6 696/6/6 698/6/6
f 699/6/6 700/6/6 701/6/6
f 701/6/6 700/6/6 702/6/6
f 703/6/6 704/6/6 707/6/6
f 707/6/6 704/6/6 708/6/6
f 705/6/6 706/6/6 709/6/6
f 709/6/6 706/6/6 710/6/6
f 711/1/6 712/1/6 713/1/6
f 713/1/6 712/1/6 714/1/6
f 715/2/6 716/2/6 717/2/6
f 717/2/6 716/2/6 718/2/6
f 719/3/6 720/3/6 721/3/6
f 721/3/6 720/3/6 722/3/6
f 723/3/6 724/3/6 725/3/6
f 725/3/6 724/3/6 726/3/6
f 726/3/6 724/3/6 727/3/6
f 727/3/6 724/3/6 728/3/6
f 726/4/6 727/4/6 729/4/6
f 729/4/6 727/4/6 730/4/6
f 730/4/6 727/4/6 731/4/6
f 731/4/6 727/4/6 732/4/6
f 726/4/6 729/4/6 733/4/6
f 730/4/6 731/4/6 734/4/6
f 734/4/6 731/4/6 735/4/6
f 732/4/6 727/4/6 736/4/6
f 734/4/6 735/4/6 737/4/6
f 735/4/6 736/4/6 737/4/6
f 726/4/6 733/4/6 737/4/6
f 733/4/6 734/4/6 737/4/6
f 737/4/6 736/4/6 738/4/6
f 738/4/6 736/4/6 739/4/6
f 736/4/6 727/4/6 740/4/6
f 739/4/6 736/4/6 740/4/6
f 726/4/6 737/4/6 741/4/6
f 738/4/6 739/4/6 742/4/6
f 742/4/6 739/4/6 743/4/6
f 740/4/6 727/4/6 744/4/6
f 725/2/6 726/2/6 745/2/6
f 743/4/6 744/4/6 746/4/6
f 745/2/6 726/2/6 746/2/6
f 726/4/6 741/4/6 746/4/6
f 742/4/6 743/4/6 746/4/6
f 741/4/6 742/4/6 746/4/6
f 727/5/6 728/5/6 747/5/6
f 746/4/6 744/4/6 747/4/6
f 744/4/6 727/4/6 747/4/6
f 747/5/6 728/5/6 748/5/6
f 745/3/6 746/3/6 749/3/6
f 746/3/6 747/3/6 749/3/6
f 747/3/6 748/3/6 749/3/6
f 749/3/6 748/3/6 750/3/6
